<svg width="60" height="60" viewBox="0 0 60 60" fill="none" xmlns="http://www.w3.org/2000/svg">
<path fill-rule="evenodd" clip-rule="evenodd" d="M54.0404 42.6944C53.6124 42.6569 53.4096 42.6393 53.1319 42.6147L52.9219 42.3627C52.351 42.2852 51.7991 42.2167 51.2496 42.1338C50.786 42.064 50.3269 41.9505 49.8616 41.9058C49.3432 41.8563 48.8353 41.7469 48.308 41.721C47.8322 41.698 47.3158 41.8107 46.8684 41.6142C46.3487 41.3846 45.8235 41.6206 45.3049 41.4952C44.8261 41.3793 44.3259 41.3529 43.8363 41.2875C43.8353 41.2986 43.8288 41.373 43.8201 41.4654C42.3361 41.4619 40.8452 41.4216 39.3184 41.8727C39.2826 41.8524 39.1615 41.7846 39.0126 41.7011C38.9914 41.8044 38.972 41.8988 38.9522 41.9961C38.1132 42.1745 37.2699 42.4087 36.429 42.561C35.3935 42.7483 34.4145 43.1754 33.3388 43.2063C32.7986 43.2219 32.2304 43.4161 31.7446 43.6651C31.4471 43.818 31.3616 43.6144 31.1591 43.561C31.1187 43.6814 31.0778 43.8018 31.0237 43.9633C30.3585 44.1046 29.6739 44.2502 28.9685 44.4002C28.9765 44.2221 28.9816 44.1143 28.9891 43.9442C28.6615 43.8564 28.3836 43.5073 27.7737 43.8657C27.9599 43.5547 28.0751 43.3622 28.2169 43.1255C27.7772 43.1025 27.6046 43.0933 27.3868 43.0817C27.3387 43.2226 27.294 43.3547 27.2447 43.4999C27.0464 43.5357 26.8191 43.5774 26.5999 43.6172C26.552 43.5369 26.4699 43.4559 26.4858 43.4168C26.6077 43.1282 26.749 42.8476 26.8831 42.5665C26.6162 42.0929 26.2447 42.4655 25.9259 42.4368C25.9327 42.3616 25.9398 42.2866 25.949 42.1825C25.8124 42.1233 25.6669 42.0601 25.5139 41.9935C25.6019 41.6727 25.6847 41.3703 25.8025 40.941C26.4757 40.2885 27.3122 39.5985 27.9841 38.7743C28.3316 38.3489 28.8454 38.0325 29.0551 37.5789C29.316 37.0159 29.9098 36.8517 30.1613 36.3887C30.4391 35.8785 30.963 35.6253 31.2412 35.1853C31.5466 34.7023 32.0526 34.4289 32.3319 33.9902C32.9965 32.9458 34.0142 32.1684 34.525 31.0182C34.9985 30.8016 35.1036 30.1435 35.6826 30.0535C35.872 29.4682 36.276 29.0238 36.6502 28.5567C37.1786 27.8974 37.482 27.0775 38.1481 26.5084C38.3363 26.3473 38.4006 26.0414 38.5972 25.6517C37.5873 26.0942 36.7205 26.4735 35.6604 26.938C35.5619 26.9181 35.2348 26.8516 34.9048 26.7842C34.7128 27.0682 34.5779 27.268 34.4335 27.481C33.4006 27.8306 32.4316 28.5938 31.2046 28.5158C31.2104 29.0598 30.627 29.127 30.4196 29.4513C29.101 29.7505 28.0695 30.5254 26.7962 31.1384C26.7747 31.1353 26.5891 31.1099 26.4125 31.0856C25.9189 31.2548 25.6831 31.778 25.0992 31.8537C24.6754 31.9081 24.2235 32.2205 23.9119 32.5421C23.5316 32.9345 23.0326 33.1594 22.5957 33.2556C22.0531 33.375 21.8173 33.7947 21.3452 34.015C21.2183 33.9979 21.0324 33.9727 20.7747 33.9378C19.9811 34.7344 18.9708 35.2916 18.012 35.974C17.8349 35.9335 17.658 35.8927 17.4295 35.8404L16.5398 36.5818C16.5426 36.3606 16.5442 36.2584 16.5474 36.0455C16.138 36.4594 15.6862 36.4348 15.1729 36.3007C15.1516 36.1815 15.1271 36.0439 15.1059 35.9273C14.2958 35.8427 13.4637 35.7559 12.7045 35.6768C12.5784 35.3916 12.4831 35.175 12.3597 34.8955C12.3972 34.8131 12.4678 34.6583 12.538 34.5039L12.3685 34.3005C12.2524 34.3455 12.1244 34.3951 11.9296 34.4706C11.4648 33.9898 11.4855 33.3973 11.5699 32.7986C11.9161 32.3942 11.9161 32.3942 11.7718 31.6626C11.6722 31.9235 11.6343 32.0225 11.5754 32.1762C11.4901 32.1146 11.3929 32.0452 11.2585 31.948C11.4285 31.7567 11.5684 31.5997 11.7414 31.4049C11.6017 31.3757 11.5091 31.3558 11.4404 31.3413C11.3925 30.6394 11.3444 29.936 11.2909 29.1476L11.6772 28.8257C11.5064 28.7961 11.4065 28.7785 11.271 28.755C11.3436 28.6363 11.4122 28.5246 11.5027 28.377L11.1965 28.0094C11.2152 27.8029 11.2291 27.6533 11.2428 27.5028C11.5625 27.5028 11.8944 27.2786 12.203 27.5551C12.158 26.9376 11.6618 27.0674 11.2023 26.978C11.3617 26.8198 11.4859 26.6964 11.6164 26.5672C11.535 26.0307 11.5664 25.4842 11.1721 24.9819C10.8429 24.5628 11.0809 24.0228 11.3492 23.5172C11.2085 23.483 11.1233 23.4623 10.9535 23.4215C11.0833 23.2616 11.1988 23.12 11.3461 22.9396C11.3062 22.9034 11.247 22.8497 11.0715 22.6897C11.0436 22.3269 11.1008 21.7918 10.9441 21.3288C10.7209 20.6694 11.1274 20.0482 10.8876 19.3767C10.6773 18.788 10.6523 18.129 10.681 17.464C10.7202 16.5573 10.5438 15.6417 10.4537 14.6638L9.97762 15.0605C10.0077 15.1756 10.0509 15.3413 10.1094 15.5675C9.91321 15.594 9.74144 15.6169 9.53625 15.645C9.42312 15.9576 9.26979 16.279 9.19574 16.6178C9.13347 16.9015 8.83652 17.1754 9.10502 17.4956C8.70419 17.683 8.73037 18.0742 8.69477 18.4235C8.58833 18.4136 8.51366 18.4068 8.45532 18.4015C8.32104 19.6806 7.83187 20.8393 7.25456 21.9711C7.22707 22.3832 7.19932 22.7951 7.17162 23.2031L6.88396 23.4428C6.72913 24.0361 6.59456 24.552 6.44175 25.1392C6.19462 25.0465 6.01914 24.9808 5.79274 24.8961C5.66221 25.2448 5.53974 25.5727 5.42624 25.8765C5.6696 26.056 5.87929 26.2112 6.08738 26.3646C5.85745 27.14 5.64656 27.8517 5.37675 28.7618C5.17317 28.3615 5.27357 28.1274 5.2696 27.8736C4.75195 27.9485 4.98411 28.3837 4.88291 28.6427C4.74677 28.6521 4.61133 28.6604 4.32113 28.679C4.41435 28.8763 4.50137 29.0609 4.58839 29.2456C4.50836 29.2395 4.42834 29.2334 4.34858 29.2276C4.50635 29.2843 4.66412 29.341 4.8378 29.4039C4.70287 29.7104 4.59133 29.9635 4.48101 30.2128C4.33692 30.2094 4.22746 30.2068 4.10951 30.2037C4.09631 30.3037 4.08166 30.4097 4.06331 30.5469C4.30428 30.7461 4.55995 30.9585 4.79355 31.1515C4.43803 32.1438 4.09927 33.0876 3.76077 34.0317C3.71733 34.0275 3.67385 34.0238 3.631 34.0196C3.62342 33.9122 3.61552 33.805 3.59644 33.5394C3.22535 33.9851 2.91928 34.3528 2.56367 34.7801C2.188 34.5292 1.84091 34.2971 1.33721 33.9598C1.31658 33.9603 1.09279 33.9667 0.808846 33.9747C1.20994 32.6819 1.30556 31.4009 1.48788 30.1497C1.74039 28.4178 2.31104 26.7804 2.66972 25.0841C3.04299 23.3179 3.65093 21.6004 4.15094 19.8601C4.43604 18.8694 4.69053 17.8691 4.99482 16.8839C5.42233 15.5011 5.82984 14.1086 6.3537 12.7625C6.58469 12.1695 6.58726 11.5268 6.94176 10.95C7.24619 10.4548 7.29532 9.80138 7.45089 9.21617C7.84854 7.72187 8.28968 6.24094 8.51811 4.70273C8.66627 3.70099 8.94654 2.71804 9.19987 1.58176L10.2363 0.718165C10.4537 0.962922 10.777 1.15232 10.7302 1.65772C10.9796 1.49306 11.2124 1.33896 11.4324 1.19339C12.4397 1.55851 13.1492 2.26446 13.7822 3.24931C13.7493 3.37543 13.6834 3.62765 13.5634 4.08993C13.5337 4.14487 13.3865 4.41793 13.2094 4.74562C13.5341 4.93602 13.7779 5.07906 14.0076 5.21377C14.0368 5.71727 14.1005 6.22008 14.0847 6.72007C14.0716 7.14619 14.4685 7.59344 13.8752 7.98591C14.1097 8.00782 14.1847 8.01435 14.3243 8.02735C14.051 8.51715 14.6803 9.06729 14.1362 9.53364C14.2448 9.70086 14.3423 9.85089 14.4579 10.0284C14.4001 10.1047 14.3366 10.1883 14.2661 10.281C14.7334 11.6396 14.6708 13.072 14.7097 14.5189C14.7628 14.5826 14.884 14.6621 14.8989 14.7576C14.9582 15.1432 15.1404 15.6174 14.9876 15.9038C14.7388 16.3688 15.2266 16.9134 14.6989 17.2895C14.8618 17.5096 15.0129 17.7136 15.1751 17.9322C15.1081 18.0478 15.0384 18.1679 14.9533 18.3149C15.0324 18.4209 15.1195 18.537 15.2531 18.7168C15.2101 19.0838 15.1601 19.5104 15.1009 20.0152C14.8467 19.8971 14.6969 19.8273 14.4893 19.7302C14.5251 20.0696 14.5576 20.3758 14.5903 20.6823C14.7162 20.724 14.8416 20.7651 15.0421 20.8304C14.9727 21.0279 14.8677 21.2054 14.8597 21.3873C14.8526 21.5463 14.9547 21.7103 15.0076 21.8695C15.1194 21.9009 15.2548 21.9385 15.4848 22.0029C15.4115 22.208 15.3482 22.3831 15.2425 22.6782C15.176 22.7077 14.9575 22.8052 14.7089 22.9158L15.0019 23.2674C14.8378 23.6716 14.7199 23.9526 14.9567 24.4017C15.3593 25.1651 15.4277 26.0709 15.6139 26.9213C15.6426 27.0516 15.4952 27.2202 15.4296 27.3692C15.5476 27.3911 15.6454 27.4094 15.6356 27.4074C15.6292 27.8941 15.6875 28.3497 15.6002 28.7755C15.512 29.2086 15.28 29.6128 15.0678 30.1346C15.1485 30.3887 15.3726 30.2861 15.7631 29.7985C15.6623 30.2949 15.6286 30.4615 15.5873 30.6636C15.4332 30.6999 15.2745 30.7372 14.9725 30.8082C15.2662 30.9705 15.4633 31.0796 15.6859 31.2025C15.6905 31.2947 15.6967 31.4011 15.7059 31.5746C15.8502 31.5827 16.0932 31.6654 16.1658 31.5882C16.5207 31.2105 16.9767 31.1514 17.3962 31.0654C17.8924 30.3695 18.7415 30.2561 19.3863 29.831C20.0956 29.3623 20.8409 28.9225 21.6246 28.6026C22.3748 28.2956 23.1505 28.0023 23.7994 27.5555C24.4881 27.0808 25.2652 26.8236 25.9721 26.4077C26.6927 25.9835 27.4804 25.6587 28.2675 25.3668C29.0262 25.0861 29.6945 24.6323 30.4654 24.3598C31.2487 24.0828 32.037 23.7354 32.7622 23.3291C33.4811 22.9262 34.2693 22.7541 34.9955 22.4014C35.7189 22.0499 36.4603 21.7323 37.2089 21.4375C37.9858 21.1314 38.783 20.8769 39.5668 20.5876C40.3203 20.3097 41.0684 20.0163 41.8822 19.7054C42.1628 19.7309 42.5335 19.7643 42.8993 19.7976C42.8961 19.8941 42.8932 20.0038 42.8898 20.1026C43.1725 20.4962 43.4888 20.2268 43.743 20.1799C44.1225 20.4956 44.478 20.7908 44.8621 21.1101C44.859 21.1666 44.8534 21.2776 44.8478 21.3803C45.6313 21.4962 45.6451 22.1404 45.6712 22.6939C45.6971 23.253 45.5857 23.8181 45.531 24.4195C44.7927 25.2332 44.6319 26.5155 43.4646 27.0537C43.545 27.2039 43.5948 27.2967 43.6783 27.4519C43.2356 27.9637 42.7671 28.5045 42.2367 29.1168C42.2474 29.1419 42.3 29.2652 42.339 29.3567C41.9686 29.8918 41.6217 30.4208 41.2431 30.926C41.0942 31.1245 40.8931 31.3821 40.6829 31.4171C40.1486 31.5064 39.8502 31.7578 39.6659 32.2645C39.5812 32.4974 39.3058 32.66 39.2226 32.9671L39.9033 32.3999C39.9409 32.5454 39.982 32.64 39.9654 32.6511C39.4765 32.9884 39.2014 33.5104 38.907 33.9865C38.659 34.3877 38.3234 34.7704 37.9566 34.8382C37.481 34.9261 37.3159 35.2961 36.7696 35.5081C37.0469 35.5795 37.1274 35.6004 37.209 35.6213C36.97 36.3807 36.8318 36.6517 36.2614 36.7889C35.805 36.8985 35.6395 37.2473 35.3985 37.5715C35.6507 37.4056 35.9028 37.2397 36.3363 36.9545C35.8745 37.5416 35.5499 37.9538 35.0921 38.5353C36.9793 38.0108 38.7269 38.0169 40.4535 37.8327C42.2122 37.6451 43.1372 37.6863 44.5713 37.9917C44.8319 38.0469 45.1246 37.9356 45.3931 37.9717C45.8578 38.0352 46.312 38.1932 46.7776 38.2376C47.205 38.2783 47.6521 38.1554 48.0732 38.2196C49.1876 38.3904 50.2687 38.7457 51.4007 38.8431C51.5116 38.8526 51.6077 39.0405 51.722 39.1576C51.9082 39.1313 52.1296 39.0353 52.3112 39.085C53.199 39.3281 54.0992 39.5523 54.9489 39.8972C55.6242 40.1713 56.321 40.3902 56.9865 40.7237C57.6441 41.0529 58.1242 41.5565 58.6979 41.9487C59.2912 42.3546 59.622 43.0473 59.8263 43.8173C58.7742 43.7996 58.7544 44.9488 58.1057 45.4269C58.4153 45.2071 58.7253 44.9871 59.0353 44.7671C59.0709 44.8156 59.1064 44.8647 59.142 44.9132L58.5676 45.3918C58.3939 45.5366 58.2178 45.6785 58.0473 45.8265C57.8566 45.993 57.5935 46.114 57.6447 46.4401C57.324 46.2739 57.3652 46.7485 57.1621 46.7253C56.7976 46.6845 57.0637 47.1922 56.7146 47.1887C56.5219 47.1871 56.3125 47.313 56.1391 47.4252C55.9247 47.5639 55.74 47.748 55.5609 47.8972C55.3899 47.7949 55.2708 47.7238 55.0825 47.6111C55.1573 47.8082 55.2045 47.9328 55.2707 48.1061C55.1854 48.1907 55.0848 48.2907 54.92 48.4539C54.6146 48.4264 54.2526 48.3938 53.9273 48.3645C53.7805 48.5008 53.6745 48.5994 53.5775 48.6894C53.635 48.8496 53.6817 48.98 53.7467 49.1604C53.5542 49.0723 53.4068 49.0047 53.2591 48.9375L53.0688 49.0961C53.1091 49.2512 53.152 49.4171 53.1997 49.6C52.5652 49.8537 51.9064 50.0091 51.3719 50.4766C51.1298 50.6881 50.728 50.7171 50.3627 50.8409C50.3645 50.834 50.35 50.8995 50.3277 50.9995C49.7935 51.2468 49.2399 51.5032 48.5577 51.8187C48.6182 51.509 48.6588 51.3021 48.6963 51.1096C48.3871 51.3015 48.2216 51.4755 48.0277 51.822C47.992 51.8238 47.9562 51.8293 47.9202 51.8275C47.8451 51.8227 47.7702 51.8145 47.6825 51.8062C47.6789 51.8809 47.6771 51.9551 47.6713 52.029C47.6683 52.0649 47.658 52.1004 47.6501 52.1388C47.3596 52.2547 47.067 52.3713 46.6825 52.5246L46.0467 51.7615C45.9916 51.775 45.9368 51.7889 45.8817 51.803C45.9014 51.9715 45.9216 52.1401 45.9495 52.38C46.0361 52.414 46.1895 52.4739 46.4811 52.5883C45.9968 52.8237 45.6017 53.0159 45.2177 53.2022C45.107 53.1165 45.0241 53.0519 44.9375 52.9849C44.7471 53.6461 44.2255 53.6742 43.6876 53.6938C43.5161 53.7003 43.3377 53.7444 43.1788 53.8099C42.8223 53.9566 42.4758 54.1277 42.0537 54.3225C42.0424 54.3147 41.9556 54.2565 41.776 54.1367C41.624 54.2817 41.4417 54.4557 41.1521 54.7325C41.2359 54.7328 41.1282 54.7045 41.0435 54.7362C40.3577 54.9923 39.7032 55.3295 38.9951 55.5292C38.9284 55.5481 38.8787 55.6192 38.8138 55.6507C38.3906 55.8545 37.8582 55.5352 37.4768 55.9128C37.14 56.2463 36.6743 56.1481 36.285 56.3059C35.8663 56.4757 35.4318 56.6065 35.002 56.7468C34.8696 56.7903 34.7174 56.785 34.5971 56.847C34.4663 56.9139 34.3622 57.033 34.1939 57.1733C34.024 57.1337 33.8059 57.0836 33.6447 57.046L33.056 57.5365C32.404 57.4613 31.7458 57.3747 31.2043 57.896C31.1563 57.9425 31.0748 57.9942 31.0179 57.9855C30.0553 57.8371 29.2754 58.4869 28.3523 58.58C27.4622 58.6699 26.6057 59.0552 25.7179 59.2224C24.542 59.4443 23.3505 59.5815 22.1645 59.7486C22.0557 59.7643 21.9295 59.7578 21.8291 59.7175C20.8895 59.3417 19.9538 58.9558 19.1051 58.6095C18.8323 58.1138 18.6082 57.7064 18.32 57.1826C18.388 56.9809 18.5002 56.6496 18.6089 56.3278C19.223 56.1201 19.8081 55.8892 20.4121 55.7283C21.0191 55.5665 21.6404 55.4283 22.2638 55.3612C23.6286 55.2133 24.9253 54.7636 26.2654 54.5188C27.0585 54.3739 27.8097 53.9916 28.6455 54.0856C29.8903 53.505 31.2403 53.2902 32.5467 52.9214C33.1114 52.7619 33.7066 52.6855 34.2531 52.4317C34.7565 52.1972 35.2964 52.0422 35.8194 51.8501C37.455 51.2507 39.0925 50.6588 40.7233 50.0472C41.5725 49.7288 42.4158 49.3912 43.2494 49.0335C44.0889 48.6731 44.9049 48.218 45.7424 47.9024C47.21 47.3492 48.4625 46.4182 49.8957 45.8159C50.6525 45.498 51.3044 44.9138 51.9715 44.4075C52.6219 43.9147 53.2319 43.3681 54.0404 42.6944Z" fill="#4CAF50"/>
</svg>
