<svg width="23" height="24" viewBox="0 0 23 24" fill="none" xmlns="http://www.w3.org/2000/svg">
<g id="Edit_light">
<path id="Rectangle 1" d="M12.348 7.27194L12.3288 7.29315L5.986 14.2746C5.97605 14.2856 5.96617 14.2964 5.95636 14.3072C5.80957 14.4684 5.67965 14.6112 5.58924 14.7846C5.49884 14.9581 5.45628 15.1463 5.4082 15.359C5.40498 15.3732 5.40175 15.3876 5.39847 15.402L4.79139 18.0749C4.78936 18.0838 4.78732 18.0927 4.78528 18.1017C4.74936 18.2595 4.71102 18.428 4.70031 18.569C4.68851 18.7241 4.69766 18.9854 4.91206 19.1903L5.25753 18.8289L4.91206 19.1904C5.12646 19.3953 5.38794 19.3926 5.54236 19.3738C5.6827 19.3567 5.84926 19.3108 6.00529 19.2678C6.01418 19.2654 6.02304 19.2629 6.03186 19.2605L8.30123 18.636C8.31698 18.6317 8.3326 18.6274 8.3481 18.6232C8.57977 18.5597 8.7849 18.5035 8.9682 18.3909C9.1515 18.2783 9.29434 18.1207 9.45566 17.9427C9.46646 17.9308 9.47734 17.9188 9.48832 17.9067L9.48833 17.9067L9.49551 17.8988L9.49552 17.8988L16.0529 10.6811L16.0737 10.6582C16.3462 10.3583 16.5823 10.0985 16.746 9.8638C16.9221 9.61143 17.0536 9.33501 17.0536 9C17.0536 8.66381 16.9202 8.38605 16.743 8.13275C16.5777 7.89641 16.3391 7.6339 16.0631 7.33009L16.0423 7.30725L16.019 7.28158C15.6888 6.91806 15.4068 6.6076 15.1498 6.39268C14.8766 6.16415 14.5672 5.98712 14.1792 5.98712C13.7925 5.98712 13.4845 6.16164 13.2122 6.38869C12.9571 6.60146 12.6781 6.90865 12.3522 7.26737L12.348 7.27194Z" stroke="#333333"/>
<path id="Vector 107" d="M11.9078 7.5L14.6334 5.5L17.3589 8.5L15.5419 11.5L11.9078 7.5Z" fill="#333333"/>
</g>
</svg>
