<svg width="17" height="19" viewBox="0 0 17 19" fill="none" xmlns="http://www.w3.org/2000/svg">
<path fill-rule="evenodd" clip-rule="evenodd" d="M8.5 7.28571C9.46615 7.28571 10.3927 6.90192 11.0759 6.21875C11.7591 5.53558 12.1429 4.609 12.1429 3.64286C12.1429 2.67671 11.7591 1.75014 11.0759 1.06697C10.3927 0.3838 9.46615 0 8.5 0C7.53385 0 6.60728 0.3838 5.92411 1.06697C5.24094 1.75014 4.85714 2.67671 4.85714 3.64286C4.85714 4.609 5.24094 5.53558 5.92411 6.21875C6.60728 6.90192 7.53385 7.28571 8.5 7.28571ZM0 18.2143C-1.66332e-08 17.098 0.219859 15.9927 0.647024 14.9615C1.07419 13.9302 1.70029 12.9932 2.48959 12.2039C3.27889 11.4146 4.21592 10.7885 5.24719 10.3613C6.27846 9.93414 7.38376 9.71429 8.5 9.71429C9.61624 9.71429 10.7215 9.93414 11.7528 10.3613C12.7841 10.7885 13.7211 11.4146 14.5104 12.2039C15.2997 12.9932 15.9258 13.9302 16.353 14.9615C16.7801 15.9927 17 17.098 17 18.2143H0Z" fill="#3D4450"/>
</svg>
