<svg width="21" height="21" viewBox="0 0 21 21" fill="none" xmlns="http://www.w3.org/2000/svg">
<path d="M4.375 2.625H16.625C17.5915 2.625 18.375 3.4085 18.375 4.375V16.625C18.375 17.5915 17.5915 18.375 16.625 18.375H4.375C3.4085 18.375 2.625 17.5915 2.625 16.625V4.375C2.625 3.4085 3.4085 2.625 4.375 2.625Z" stroke="#575F70" stroke-width="2" stroke-linecap="round" stroke-linejoin="round"/>
<path d="M13.125 9.625C12.1585 9.625 11.375 8.8415 11.375 7.875C11.375 6.9085 12.1585 6.125 13.125 6.125C14.0915 6.125 14.875 6.9085 14.875 7.875C14.875 8.8415 14.0915 9.625 13.125 9.625Z" stroke="#575F70" stroke-width="2" stroke-linecap="round" stroke-linejoin="round"/>
<path d="M2.625 13.1252L5.32525 10.425C5.65342 10.0969 6.09846 9.9126 6.5625 9.9126C7.02654 9.9126 7.47158 10.0969 7.79975 10.425L15.75 18.3752" stroke="#575F70" stroke-width="2" stroke-linecap="round" stroke-linejoin="round"/>
</svg>
