<svg width="23" height="24" viewBox="0 0 23 24" fill="none" xmlns="http://www.w3.org/2000/svg">
<g id="Trash_light">
<path id="Vector 8" d="M9.16345 14.5L9.16345 11.5" stroke="#333333" stroke-linecap="round"/>
<path id="Vector 9" d="M13.7061 14.5L13.7061 11.5" stroke="#333333" stroke-linecap="round"/>
<path id="Rectangle 41" d="M3.25818 6.5H19.6115V6.5C18.5104 6.5 17.9599 6.5 17.5378 6.71084C17.1503 6.90445 16.8361 7.21864 16.6425 7.60618C16.4317 8.02822 16.4317 8.57875 16.4317 9.6798V15.5C16.4317 17.3856 16.4317 18.3284 15.8459 18.9142C15.2601 19.5 14.3173 19.5 12.4317 19.5H10.438C8.55236 19.5 7.60956 19.5 7.02377 18.9142C6.43798 18.3284 6.43798 17.3856 6.43798 15.5V9.6798C6.43798 8.57875 6.43798 8.02822 6.22714 7.60618C6.03354 7.21864 5.71934 6.90445 5.3318 6.71084C4.90976 6.5 4.35923 6.5 3.25818 6.5V6.5Z" stroke="#333333" stroke-linecap="round"/>
<path id="Ellipse 45" d="M9.16348 3.50024C9.16348 3.50024 9.61773 2.5 11.4348 2.5C13.2518 2.5 13.7061 3.5 13.7061 3.5" stroke="#333333" stroke-linecap="round"/>
</g>
</svg>
